<svg xmlns="http://www.w3.org/2000/svg" viewBox="0 0 2048 481" width="2048" height="481" shape-rendering="geometricPrecision">
<path d="M 115.00,241.50 L 95.00,241.50 L 94.00,240.50 L 82.00,239.50 L 78.00,237.50 L 75.00,237.50 L 58.00,230.50 L 39.00,217.50 L 22.50,199.00 L 16.50,190.00 L 16.50,188.00 L 10.50,178.00 L 2.50,155.00 L 2.50,150.00 L 0.50,145.00 L 0.50,139.00 L -0.50,138.00 L -0.50,103.00 L 0.50,102.00 L 0.50,96.00 L 2.50,91.00 L 2.50,86.00 L 5.50,79.00 L 5.50,75.00 L 7.50,72.00 L 8.50,67.00 L 19.50,46.00 L 27.50,35.00 L 41.00,21.50 L 52.00,13.50 L 57.00,10.50 L 59.00,10.50 L 61.00,8.50 L 63.00,8.50 L 76.00,2.50 L 80.00,2.50 L 90.00,-0.50 L 120.00,-0.50 L 130.00,2.50 L 134.00,2.50 L 147.00,8.50 L 149.00,8.50 L 151.00,10.50 L 153.00,10.50 L 169.00,21.50 L 182.50,35.00 L 193.50,51.00 L 204.50,75.00 L 204.50,78.00 L 206.50,82.00 L 206.50,86.00 L 208.50,91.00 L 208.50,95.00 L 209.50,96.00 L 209.50,106.00 L 210.50,107.00 L 210.50,134.00 L 209.50,135.00 L 209.50,145.00 L 208.50,146.00 L 207.50,154.00 L 203.50,168.00 L 198.50,178.00 L 198.50,180.00 L 190.50,195.00 L 179.50,209.00 L 172.00,215.50 L 171.00,217.50 L 159.00,226.50 L 150.00,231.50 L 148.00,231.50 L 144.00,234.50 L 135.00,237.50 L 132.00,237.50 L 128.00,239.50 L 122.00,239.50 L 115.00,241.50 Z M 897.00,241.50 L 876.00,241.50 L 875.00,240.50 L 863.00,239.50 L 859.00,237.50 L 856.00,237.50 L 843.00,231.50 L 841.00,231.50 L 824.00,220.50 L 809.50,206.00 L 796.50,187.00 L 787.50,167.00 L 787.50,163.00 L 784.50,157.00 L 784.50,152.00 L 781.50,142.00 L 780.50,112.00 L 781.50,111.00 L 782.50,93.00 L 790.50,66.00 L 801.50,45.00 L 812.50,31.00 L 817.00,27.50 L 819.00,24.50 L 832.00,14.50 L 849.00,5.50 L 852.00,5.50 L 858.00,2.50 L 862.00,2.50 L 866.00,0.50 L 871.00,0.50 L 872.00,-0.50 L 901.00,-0.50 L 902.00,0.50 L 907.00,0.50 L 911.00,2.50 L 915.00,2.50 L 921.00,5.50 L 924.00,5.50 L 936.00,11.50 L 948.00,19.50 L 961.50,32.00 L 974.50,50.00 L 985.50,74.00 L 986.50,80.00 L 988.50,84.00 L 990.50,98.00 L 991.50,99.00 L 992.50,126.00 L 991.50,127.00 L 991.50,142.00 L 990.50,143.00 L 990.50,147.00 L 989.50,148.00 L 988.50,156.00 L 986.50,160.00 L 986.50,164.00 L 984.50,167.00 L 983.50,172.00 L 972.50,194.00 L 964.50,205.00 L 949.00,220.50 L 942.00,225.50 L 932.00,231.50 L 930.00,231.50 L 920.00,236.50 L 914.00,237.50 L 910.00,239.50 L 904.00,239.50 L 897.00,241.50 Z M 393.00,235.50 L 359.00,235.50 L 357.50,234.00 L 307.00,134.50 L 277.50,135.00 L 277.50,235.00 L 248.50,235.00 L 249.00,5.50 L 336.00,5.50 L 353.00,10.50 L 363.00,16.50 L 370.50,23.00 L 378.50,34.00 L 384.50,51.00 L 384.50,58.00 L 385.50,59.00 L 385.50,80.00 L 384.50,81.00 L 384.50,86.00 L 381.50,95.00 L 376.50,105.00 L 365.00,118.50 L 351.00,127.50 L 348.00,127.50 L 342.00,130.50 L 336.50,131.00 L 338.50,133.00 L 338.50,135.00 L 340.50,137.00 L 355.50,166.00 L 357.50,168.00 L 366.50,186.00 L 373.50,197.00 L 373.50,199.00 L 379.50,208.00 L 379.50,210.00 L 384.50,217.00 L 384.50,219.00 L 390.50,228.00 L 390.50,230.00 L 393.50,234.00 L 393.00,235.50 Z M 488.00,235.50 L 460.50,235.00 L 460.50,36.00 L 396.00,35.50 L 396.00,5.50 L 554.50,6.00 L 554.50,34.00 L 553.00,35.50 L 488.50,36.00 L 488.00,235.50 Z M 742.00,235.50 L 713.50,235.00 L 713.00,130.50 L 611.00,130.50 L 610.50,235.00 L 582.50,235.00 L 583.00,5.50 L 610.50,6.00 L 611.00,100.50 L 713.00,100.50 L 713.50,6.00 L 742.50,6.00 L 742.00,235.50 Z M 118.50,210.00 L 129.00,207.50 L 144.00,199.50 L 161.50,183.00 L 165.50,177.00 L 172.50,164.00 L 177.50,149.00 L 177.50,145.00 L 178.50,144.00 L 178.50,140.00 L 180.50,134.00 L 180.50,107.00 L 179.50,106.00 L 179.50,101.00 L 177.50,96.00 L 177.50,91.00 L 172.50,77.00 L 169.50,72.00 L 169.50,70.00 L 158.50,54.00 L 156.50,53.00 L 150.00,45.50 L 138.00,37.50 L 124.00,31.50 L 120.00,31.50 L 114.00,29.50 L 96.00,29.50 L 95.00,30.50 L 86.00,31.50 L 80.00,34.50 L 78.00,34.50 L 64.00,42.50 L 51.50,54.00 L 43.50,65.00 L 34.50,84.00 L 34.50,88.00 L 31.50,96.00 L 31.50,101.00 L 29.50,108.00 L 29.50,132.00 L 30.50,133.00 L 31.50,145.00 L 34.50,153.00 L 34.50,156.00 L 42.50,174.00 L 48.50,183.00 L 62.00,196.50 L 69.00,201.50 L 81.00,207.50 L 84.00,207.50 L 92.00,210.50 L 118.50,210.00 Z M 900.50,210.00 L 915.00,205.50 L 927.00,198.50 L 940.50,186.00 L 948.50,175.00 L 948.50,173.00 L 954.50,163.00 L 954.50,160.00 L 956.50,157.00 L 957.50,151.00 L 959.50,147.00 L 959.50,142.00 L 961.50,136.00 L 961.50,129.00 L 962.50,128.00 L 962.50,112.00 L 961.50,111.00 L 959.50,93.00 L 951.50,71.00 L 942.50,57.00 L 929.00,43.50 L 920.00,37.50 L 918.00,37.50 L 914.00,34.50 L 905.00,31.50 L 901.00,31.50 L 896.00,29.50 L 877.00,29.50 L 872.00,31.50 L 864.00,32.50 L 857.00,35.50 L 855.00,37.50 L 853.00,37.50 L 842.00,45.50 L 827.50,61.00 L 816.50,83.00 L 816.50,86.00 L 813.50,94.00 L 813.50,98.00 L 811.50,104.00 L 811.50,137.00 L 813.50,142.00 L 814.50,151.00 L 816.50,154.00 L 817.50,160.00 L 822.50,171.00 L 829.50,182.00 L 841.00,194.50 L 852.00,202.50 L 854.00,202.50 L 858.00,205.50 L 869.00,209.50 L 872.00,209.50 L 873.00,210.50 L 900.50,210.00 Z M 319.50,106.00 L 335.00,103.50 L 344.00,98.50 L 351.50,90.00 L 355.50,79.00 L 355.50,60.00 L 352.50,51.00 L 347.50,44.00 L 342.00,39.50 L 330.00,34.50 L 322.00,34.50 L 321.00,33.50 L 278.00,33.50 L 277.50,106.00 L 319.50,106.00 Z" fill="#4cc1b0" fill-rule="evenodd"/>
<path d="M 1156.00,241.50 L 1132.00,241.50 L 1131.00,240.50 L 1125.00,240.50 L 1124.00,239.50 L 1116.00,239.50 L 1111.00,237.50 L 1104.00,236.50 L 1101.00,234.50 L 1098.00,234.50 L 1093.00,231.50 L 1084.00,228.50 L 1082.00,226.50 L 1075.00,223.50 L 1060.00,212.50 L 1058.50,210.00 L 1050.50,203.00 L 1042.50,193.00 L 1036.50,184.00 L 1036.50,182.00 L 1030.50,172.00 L 1022.50,146.00 L 1022.50,139.00 L 1021.50,138.00 L 1021.50,131.00 L 1020.50,130.00 L 1020.50,109.00 L 1021.50,108.00 L 1021.50,102.00 L 1022.50,101.00 L 1022.50,93.00 L 1025.50,85.00 L 1025.50,81.00 L 1034.50,60.00 L 1047.50,41.00 L 1061.00,27.50 L 1080.00,14.50 L 1101.00,5.50 L 1104.00,5.50 L 1111.00,2.50 L 1116.00,2.50 L 1117.00,1.50 L 1127.00,0.50 L 1128.00,-0.50 L 1162.00,-0.50 L 1163.00,0.50 L 1168.00,0.50 L 1173.00,2.50 L 1178.00,2.50 L 1184.00,5.50 L 1190.00,6.50 L 1207.00,14.50 L 1215.00,19.50 L 1220.00,23.50 L 1229.50,34.00 L 1225.00,39.50 L 1216.00,45.50 L 1199.00,59.50 L 1184.00,46.50 L 1174.00,41.50 L 1161.00,37.50 L 1155.00,37.50 L 1154.00,36.50 L 1136.00,36.50 L 1135.00,37.50 L 1128.00,37.50 L 1121.00,40.50 L 1118.00,40.50 L 1109.00,45.50 L 1107.00,45.50 L 1101.00,49.50 L 1084.50,65.00 L 1076.50,77.00 L 1076.50,79.00 L 1071.50,89.00 L 1070.50,95.00 L 1068.50,99.00 L 1068.50,106.00 L 1067.50,107.00 L 1067.50,133.00 L 1068.50,134.00 L 1068.50,141.00 L 1069.50,142.00 L 1070.50,149.00 L 1073.50,155.00 L 1073.50,158.00 L 1084.50,177.00 L 1099.00,190.50 L 1109.00,196.50 L 1126.00,202.50 L 1134.00,202.50 L 1135.00,203.50 L 1161.00,202.50 L 1168.00,199.50 L 1171.00,199.50 L 1181.00,194.50 L 1188.00,189.50 L 1199.00,177.50 L 1201.00,177.50 L 1220.00,191.50 L 1226.00,194.50 L 1233.50,201.00 L 1220.00,215.50 L 1205.00,226.50 L 1183.00,236.50 L 1176.00,237.50 L 1171.00,239.50 L 1157.00,240.50 L 1156.00,241.50 Z M 1397.00,235.50 L 1257.50,235.00 L 1258.00,5.50 L 1299.50,6.00 L 1299.50,198.00 L 1397.00,198.50 L 1397.00,235.50 Z M 1465.00,235.50 L 1423.50,235.00 L 1424.00,5.50 L 1465.50,6.00 L 1465.00,235.50 Z M 1718.00,235.50 L 1666.00,235.50 L 1663.50,233.00 L 1656.50,220.00 L 1644.50,202.00 L 1629.50,176.00 L 1623.50,168.00 L 1621.50,163.00 L 1618.50,160.00 L 1618.50,158.00 L 1615.50,155.00 L 1610.50,145.00 L 1602.50,134.00 L 1595.50,121.00 L 1591.50,116.00 L 1584.50,103.00 L 1580.50,98.00 L 1558.00,60.50 L 1557.50,234.00 L 1556.00,235.50 L 1514.50,235.00 L 1515.00,5.50 L 1570.00,5.50 L 1571.50,7.00 L 1676.00,175.50 L 1676.50,6.00 L 1718.50,6.00 L 1718.00,235.50 Z M 1809.00,235.50 L 1767.50,235.00 L 1768.00,5.50 L 1809.50,6.00 L 1809.00,235.50 Z M 2047.00,235.50 L 1995.00,235.50 L 1975.50,205.00 L 1974.50,202.00 L 1971.50,199.00 L 1971.50,197.00 L 1968.50,194.00 L 1949.50,162.00 L 1945.50,157.00 L 1941.50,149.00 L 1939.00,146.50 L 1904.50,205.00 L 1900.50,210.00 L 1892.50,225.00 L 1885.00,235.50 L 1835.50,235.00 L 1914.50,113.00 L 1907.50,101.00 L 1902.50,95.00 L 1897.50,86.00 L 1894.50,83.00 L 1889.50,74.00 L 1886.50,71.00 L 1885.50,68.00 L 1872.50,50.00 L 1867.50,41.00 L 1862.50,35.00 L 1861.50,32.00 L 1846.50,11.00 L 1844.00,5.50 L 1894.00,5.50 L 1941.00,82.50 L 1987.00,5.50 L 2035.50,6.00 L 2012.50,40.00 L 2011.50,43.00 L 2008.50,46.00 L 2000.50,60.00 L 1995.50,66.00 L 1989.50,77.00 L 1979.50,91.00 L 1978.50,94.00 L 1967.50,109.00 L 1965.50,114.00 L 2008.50,178.00 L 2011.50,181.00 L 2021.50,196.00 L 2022.50,199.00 L 2047.50,234.00 L 2047.00,235.50 Z M 977.00,308.50 L 965.00,307.50 L 955.00,302.50 L 948.50,296.00 L 943.50,286.00 L 943.50,270.00 L 946.50,263.00 L 955.00,253.50 L 965.00,248.50 L 981.00,248.50 L 986.00,251.50 L 988.00,251.50 L 997.50,260.00 L 1002.50,270.00 L 1002.50,287.00 L 999.50,293.00 L 991.00,302.50 L 984.00,306.50 L 977.00,308.50 Z M 366.00,343.50 L 350.00,343.50 L 343.00,340.50 L 332.50,331.00 L 328.50,323.00 L 328.50,320.00 L 327.50,319.00 L 327.50,309.00 L 330.50,300.00 L 338.00,290.50 L 349.00,284.50 L 366.00,284.50 L 373.00,287.50 L 382.50,296.00 L 387.50,307.00 L 387.50,321.00 L 384.50,327.00 L 384.50,329.00 L 377.00,337.50 L 373.00,340.50 L 371.00,340.50 L 366.00,343.50 Z M 893.00,392.50 L 874.00,392.50 L 860.00,387.50 L 854.00,383.50 L 841.50,370.00 L 836.50,360.00 L 836.50,356.00 L 834.50,351.00 L 834.50,336.00 L 835.50,335.00 L 836.50,328.00 L 842.50,316.00 L 845.50,312.00 L 855.00,303.50 L 866.00,297.50 L 872.00,295.50 L 880.00,295.50 L 881.00,294.50 L 895.00,295.50 L 909.00,301.50 L 920.50,311.00 L 927.50,321.00 L 931.50,331.00 L 932.50,350.00 L 931.50,351.00 L 931.50,356.00 L 929.50,362.00 L 925.50,370.00 L 914.00,382.50 L 900.00,390.50 L 897.00,390.50 L 893.00,392.50 Z M 456.00,431.50 L 440.00,431.50 L 430.00,428.50 L 419.00,422.50 L 412.50,417.00 L 405.50,408.00 L 401.50,400.00 L 401.50,397.00 L 399.50,393.00 L 399.50,385.00 L 398.50,384.00 L 399.50,372.00 L 401.50,368.00 L 401.50,365.00 L 407.50,354.00 L 410.50,350.00 L 420.00,341.50 L 430.00,336.50 L 440.00,333.50 L 456.00,333.50 L 466.00,336.50 L 476.00,341.50 L 483.00,347.50 L 488.50,354.00 L 493.50,363.00 L 496.50,372.00 L 496.50,393.00 L 493.50,402.00 L 488.50,411.00 L 474.00,424.50 L 466.00,428.50 L 456.00,431.50 Z M 604.00,480.50 L 575.00,480.50 L 556.00,473.50 L 542.00,463.50 L 533.50,454.00 L 524.50,438.00 L 521.50,428.00 L 520.50,418.00 L 519.50,417.00 L 520.50,401.00 L 525.50,384.00 L 527.50,382.00 L 527.50,380.00 L 530.50,375.00 L 536.50,367.00 L 549.00,355.50 L 564.00,347.50 L 573.00,344.50 L 580.00,344.50 L 581.00,343.50 L 598.00,343.50 L 599.00,344.50 L 605.00,344.50 L 619.00,349.50 L 623.00,352.50 L 625.00,352.50 L 632.00,357.50 L 644.50,370.00 L 652.50,383.00 L 657.50,398.00 L 657.50,403.00 L 658.50,404.00 L 658.50,421.00 L 657.50,422.00 L 657.50,427.00 L 652.50,441.00 L 646.50,452.00 L 637.00,462.50 L 629.00,469.50 L 614.00,477.50 L 611.00,477.50 L 604.00,480.50 Z M 769.00,480.50 L 740.00,480.50 L 733.00,477.50 L 730.00,477.50 L 718.00,471.50 L 711.00,466.50 L 697.50,452.00 L 691.50,442.00 L 686.50,427.00 L 686.50,420.00 L 685.50,419.00 L 686.50,397.00 L 688.50,393.00 L 688.50,390.00 L 695.50,376.00 L 703.50,365.00 L 712.00,357.50 L 719.00,352.50 L 725.00,349.50 L 727.00,349.50 L 729.00,347.50 L 732.00,347.50 L 739.00,344.50 L 745.00,344.50 L 746.00,343.50 L 771.00,344.50 L 780.00,347.50 L 790.00,352.50 L 801.00,360.50 L 813.50,375.00 L 819.50,387.00 L 822.50,396.00 L 822.50,402.00 L 823.50,403.00 L 823.50,422.00 L 822.50,423.00 L 822.50,428.00 L 819.50,435.00 L 819.50,438.00 L 810.50,454.00 L 805.00,460.50 L 791.00,471.50 L 779.00,477.50 L 776.00,477.50 L 769.00,480.50 Z" fill="#232662" fill-rule="evenodd"/>
</svg>